# xmcd CD database file
#
# Track frame offsets:
#	150
#	12937
#	32970
#
# Disc length: 634 seconds
#
# Revision: 0
# Processed by: cddbd v1.5PL3 Copyright (c) Steve Scherf et al.
# Submitted via: CDex 1.50beta9
#
DISCID=1c027803
DTITLE=THE GROOVERS - 春だったね '97
DYEAR=1997
DGENRE=Rock
TTITLE0=春だったね '97
TTITLE1=(I'm not a)COMMANDED MAN
TTITLE2=ピラニア
EXTD=YEAR: 1997
EXTT0=
EXTT1=
EXTT2=
PLAYORDER=
